<svg class="icon" viewBox="0 0 1024 1024" xmlns="http://www.w3.org/2000/svg" width="200" height="200"><path d="M853.604 488.598 787.96 203.523a98.381 98.381 0 0 0-53.606-67.05L470.542 10.023a98.606 98.606 0 0 0-85.838.169l-263.306 127.35c-27.225 13.162-46.744 37.687-53.438 67.218L3.385 490.117a98.494 98.494 0 0 0 19.238 83.643l182.756 228.32c18.281 22.837 45.506 36.337 77.456 37.18l292.5-.562a98.438 98.438 0 0 0 77.232-37.35l181.968-229.05c18.957-23.738 25.82-54.225 19.07-83.7zm-70.087 43.144-181.913 229.05a33.581 33.581 0 0 1-26.325 12.712l-292.612.506h-1.07a34.087 34.087 0 0 1-25.255-12.656L73.529 532.98a33.694 33.694 0 0 1-6.581-28.462l64.631-285.357a33.413 33.413 0 0 1 18.169-22.893l263.306-127.35a33.3 33.3 0 0 1 29.306-.057l263.813 126.45a33.413 33.413 0 0 1 18.225 22.838l65.644 285.019a33.75 33.75 0 0 1-6.525 28.575z" fill="#2c2c2c"/><path d="m682.492 467.448-52.538-15.3a199.8 199.8 0 0 0-22.837-122.231l40.893-32.625a28.744 28.744 0 0 0-35.662-44.944l-40.05 31.781a198.9 198.9 0 0 0-107.888-55.294l1.35-53.325a28.688 28.688 0 0 0-57.318-1.462l-1.407 53.606a199.406 199.406 0 0 0-109.575 50.4l-39.375-34.706a28.744 28.744 0 0 0-37.968 43.087l40.612 35.775a198.956 198.956 0 0 0-28.519 119.25l-55.068 13.107a28.688 28.688 0 0 0 13.275 55.856l54.393-12.881a200.869 200.869 0 0 0 71.607 91.968l-28.294 57.825a28.688 28.688 0 0 0 51.581 25.313l27.9-57.094a198 198 0 0 0 116.831 3.488l24.807 57.937a28.744 28.744 0 0 0 52.762-22.669l-24.975-58.218a199.744 199.744 0 0 0 77.4-88.707l51.975 15.132a28.462 28.462 0 0 0 35.606-19.463 28.856 28.856 0 0 0-19.518-35.606zm-221.12-119.7 1.35-52.819c21.488 5.119 41.4 15.469 58.107 30.206l-41.344 32.85a82.125 82.125 0 0 0-18.112-10.237zm-39.655 157.05c4.556.562 9.28.675 13.893.337l22.67 53.1a131.063 131.063 0 0 1-61.763-2.025l25.2-51.412zm4.668-81.338a4.388 4.388 0 0 1 4.5-4.275 4.331 4.331 0 0 1 4.22 4.5c-.113 4.782-8.832 4.557-8.72-.225zm-79.537-101.925a134.325 134.325 0 0 1 58.556-27.73l-1.35 52.48a81.112 81.112 0 0 0-18.619 9.282l-38.587-34.032zm4.894 80.944a76.5 76.5 0 0 0-2.194 11.25l-52.763 12.431.057-3.487c.506-19.575 5.287-38.756 14.062-56.25l40.838 36.056zm11.362 66.938c2.25 3.375 4.725 6.468 7.425 9.393l-24.919 50.907a136.575 136.575 0 0 1-36.393-47.475l53.887-12.825zm187.763 19.406a136.35 136.35 0 0 1-39.994 46.237l-22.781-53.268a91.38 91.38 0 0 0 7.875-8.944l54.9 15.975zm3.937-117.394a134.438 134.438 0 0 1 11.531 62.156l-54-15.75a78.188 78.188 0 0 0-1.63-11.306l44.1-35.1z" fill="#2c2c2c"/></svg>