<svg xmlns="http://www.w3.org/2000/svg" fill="none" width="32" height="32"><defs><clipPath id="a"><rect x="3.5" y="4.5" width="25" height="23" rx="0"/></clipPath></defs><rect width="32" height="32" rx="8" fill="#FFF" style="mix-blend-mode:passthrough"/><rect x=".5" y=".5" width="31" height="31" rx="7.5" stroke="#000"/><g clip-path="url(#a)"><path d="M18.083 21.75h3.646c2.084-.191 3.646-1.82 3.646-3.833 0-2.108-1.875-3.833-4.167-3.833h-.104C20.584 11.879 18.5 10.25 16 10.25c-2.917 0-5.208 2.109-5.208 4.792-1.771.192-3.125 1.63-3.125 3.354 0 1.821 1.666 3.354 3.646 3.354h6.77Zm3.646.959H11.313c-2.605 0-4.688-1.917-4.688-4.313 0-1.917 1.354-3.546 3.125-4.12.417-2.78 3.02-4.984 6.25-4.984 2.708 0 5.104 1.63 5.938 3.833 2.5.288 4.479 2.3 4.479 4.792s-2.084 4.504-4.688 4.792Z" fill="#444" style="mix-blend-mode:passthrough"/></g></svg>