<svg xmlns="http://www.w3.org/2000/svg" fill="none" width="64" height="64"><defs><clipPath id="a"><rect width="64" height="64" rx="32"/></clipPath><clipPath id="b"><rect x="23" y="19" width="18" height="24" rx="0"/></clipPath></defs><g clip-path="url(#a)"><rect width="64" height="64" rx="32" fill="#FFF" style="mix-blend-mode:passthrough"/><rect width="64" height="64" rx="32" fill="#000" fill-opacity=".001" style="mix-blend-mode:passthrough"/><rect x="23" y="16" width="18" height="32" rx="0" fill="none" style="mix-blend-mode:passthrough"/><g clip-path="url(#b)"><path d="M23 55.516q.047 1.265.89 2.109.844.844 2.11.89h12q1.266-.046 2.11-.89.843-.844.89-2.11v-12q-.047-1.265-.89-2.109-.844-.843-2.11-.89H26q-1.266.047-2.11.89-.843.844-.89 2.11v12Z" fill="#0086E5" style="mix-blend-mode:passthrough" transform="matrix(1 0 0 -1 0 81.031)"/></g><rect x="1" y="1" width="62" height="62" rx="31" stroke="#0086E5" stroke-width="2" style="mix-blend-mode:passthrough"/></g></svg>