<svg xmlns="http://www.w3.org/2000/svg" fill="none" width="64" height="64"><defs><clipPath id="a"><rect width="64" height="64" rx="32"/></clipPath><clipPath id="b"><rect x="13" y="14" width="38" height="36" rx="0"/></clipPath></defs><g clip-path="url(#a)"><rect width="64" height="64" rx="32" fill="#FFF" style="mix-blend-mode:passthrough"/><rect width="64" height="64" rx="32" fill="#000" fill-opacity=".001" style="mix-blend-mode:passthrough"/><g clip-path="url(#b)"><path d="M33.188 19.926v-2.301h2.375c.656 0 1.188-.504 1.188-1.125s-.532-1.125-1.188-1.125h-7.125c-.656 0-1.187.504-1.187 1.125s.531 1.125 1.187 1.125h2.375v2.3c-10.125.838-15.77 11.485-10.436 19.68 5.335 8.195 17.912 8.195 23.247 0 5.335-8.195-.311-18.842-10.436-19.68Zm0 23.512V41.25c0-.621-.532-1.125-1.187-1.125-.656 0-1.188.504-1.188 1.125v2.188c-5.289-.531-9.467-4.49-10.028-9.5h2.31c.655 0 1.187-.504 1.187-1.126 0-.62-.532-1.124-1.188-1.124h-2.31c.562-5.011 4.74-8.97 10.029-9.501v2.188c0 .621.532 1.125 1.188 1.125.655 0 1.187-.504 1.187-1.125v-2.188c5.289.531 9.468 4.49 10.028 9.5h-2.31c-.655 0-1.187.504-1.187 1.125 0 .622.532 1.126 1.188 1.126h2.31c-.561 5.01-4.74 8.969-10.029 9.5Z" fill="#0086E5" style="mix-blend-mode:passthrough"/><path d="m38.532 37.226-5.587-3.178-2.803-6.953c-.249-.561-.923-.833-1.523-.614-.599.22-.905.85-.692 1.424l2.97 7.313c.04.092.094.18.16.258l.041.045c.058.063.124.12.196.17l.06.038h.029l5.938 3.375c.529.178 1.117-.02 1.41-.474.292-.454.209-1.04-.2-1.404Z" fill="#0086E5" style="mix-blend-mode:passthrough"/></g><rect x="1" y="1" width="62" height="62" rx="31" stroke="#0086E5" stroke-width="2" style="mix-blend-mode:passthrough"/></g></svg>