<svg xmlns="http://www.w3.org/2000/svg" fill="none" width="32" height="32"><defs><clipPath id="a"><rect x="2.5" y="2" width="27" height="28" rx="0"/></clipPath></defs><rect width="32" height="32" rx="8" fill="#FFF" style="mix-blend-mode:passthrough"/><rect x=".5" y=".5" width="31" height="31" rx="7.5" stroke="#000"/><g clip-path="url(#a)"><path d="M16.405 20.54v1h5.528q.228.003.35.171.169.234.163.697-.01.79-.511.793l-3.812.012-8.023-.012q-2.931-.01-3.55-2.648-.188-.794-.194-2.099l-.001-.243q-.01-2.037.26-2.929.438-1.442 1.419-2.14l1.024-.733q4.595-3.29 5.57-3.945.19-.127.314-.11.122.018.25.221.356.563-.117 1.194-.154.206-1.107 1.189-.792.816-.947 1.012-.205.259-.072.585.119.29.403.361.177.043 5.355.024 3.124-.012 4.233-.01.656 0 .663 1.015.001.464-.176.676-.15.178-.478.18H16.405v1h8.588q.283 0 .45.235.205.288.204.784-.003.846-.656.85h-8.586v1h7.297q.348.002.536.32.228.387.117.952-.117.599-.639.599h-7.31Zm6.907 1q.14.383.134.88-.02 1.77-1.508 1.78l-3.816.013-8.025-.012q-3.722-.012-4.52-3.418-.215-.905-.221-2.326l-.001-.24q-.011-2.19.303-3.226.538-1.768 1.796-2.664l1.022-.73q4.607-3.3 5.596-3.964.509-.34 1.01-.269.58.083.955.676.725 1.146-.16 2.326-.193.259-1.191 1.288l-.287.297q1.224 0 4.305-.01 3.127-.013 4.236-.01.795 0 1.264.651.394.548.399 1.36.001.488-.14.859h.531q.798 0 1.264.655.391.55.389 1.367-.005 1.72-1.453 1.839.304.65.143 1.472-.276 1.407-1.62 1.407h-.405Z" fill-rule="evenodd" fill="#000" style="mix-blend-mode:passthrough"/></g></svg>