<svg xmlns="http://www.w3.org/2000/svg" fill="none" width="70" height="64"><path d="M63.542 26.096q.153.14.3.288.145.148.283.303.138.155.267.317.13.162.251.33.121.17.233.344.112.175.215.355t.197.366q.093.185.177.375.084.19.157.384.074.194.138.392.063.197.116.398.054.2.096.404.043.203.075.408.033.205.054.411.022.207.032.414.011.207.011.415t-.01.415q-.011.207-.033.414-.021.206-.054.411-.032.205-.075.408-.042.203-.096.404-.053.2-.116.398-.064.198-.138.392-.073.194-.157.384t-.177.375q-.094.186-.197.366-.103.18-.215.355t-.233.343q-.121.169-.25.331-.13.162-.268.317t-.284.303q-.146.148-.299.288l-23.144 21.16q-.137.126-.279.244-.142.118-.29.23-.148.112-.3.217-.153.105-.31.203-.157.097-.32.187-.16.09-.327.173-.165.083-.335.158-.169.075-.342.142-.172.067-.348.126-.175.059-.353.11-.179.05-.359.093-.18.042-.362.077-.182.034-.366.06-.183.025-.367.042-.185.017-.37.026-.185.008-.37.008t-.37-.008q-.185-.009-.37-.026-.184-.017-.367-.043-.184-.025-.366-.06-.182-.034-.362-.076-.18-.043-.358-.093-.179-.051-.354-.11-.176-.059-.348-.126-.173-.067-.342-.142-.17-.075-.335-.158-.166-.082-.328-.173-.162-.09-.319-.188-.157-.097-.31-.202-.152-.105-.3-.217-.148-.111-.29-.23-.143-.118-.28-.243L6.459 37.904q-.153-.14-.3-.289-.145-.148-.283-.303-.138-.155-.267-.317-.13-.162-.251-.33-.121-.17-.233-.344-.112-.175-.215-.355t-.197-.366q-.093-.185-.177-.375-.083-.19-.157-.384t-.138-.392q-.063-.197-.116-.398-.054-.2-.096-.404-.043-.203-.075-.408-.033-.205-.054-.411-.022-.207-.032-.414-.011-.207-.011-.415t.01-.415q.011-.207.033-.414.021-.206.054-.411.032-.205.075-.408.042-.204.096-.404.053-.2.116-.398.064-.198.138-.392.074-.194.157-.384.084-.19.177-.375.094-.186.197-.366.103-.18.215-.355t.233-.343q.121-.169.25-.331.13-.162.268-.317t.284-.303q.146-.148.299-.288l23.144-21.16q.136-.126.279-.244.142-.119.29-.23.148-.112.3-.217.153-.105.31-.202.158-.098.32-.188.16-.09.327-.173.165-.083.335-.158.169-.075.342-.142.172-.067.348-.126.175-.059.353-.11.179-.05.359-.093.18-.042.362-.077.182-.034.366-.06.183-.025.367-.042.185-.017.37-.026.185-.008.37-.008t.37.008q.185.009.37.026.184.017.367.043.184.025.366.06.182.034.362.076.18.042.358.093.179.051.354.11.176.059.348.126.173.067.342.142.17.075.335.158.166.082.328.173.162.09.319.188.157.097.31.202.152.105.3.217.148.111.29.23.142.118.28.243l23.143 21.16Z" fill="#FFF"/><path d="M66.144 32q0-.415-.043-.829-.043-.413-.129-.82-.085-.406-.212-.801-.128-.396-.295-.776-.168-.38-.374-.741-.206-.36-.448-.698-.242-.338-.518-.648t-.583-.591L40.398 4.936q-.137-.126-.279-.244-.142-.119-.29-.23-.148-.112-.3-.217-.153-.105-.31-.202-.157-.098-.32-.188-.16-.09-.327-.173-.165-.083-.335-.158-.169-.075-.342-.142-.172-.067-.348-.126-.175-.059-.353-.11-.179-.05-.359-.093-.18-.042-.362-.077-.182-.034-.366-.06-.183-.025-.367-.042-.185-.017-.37-.026-.185-.008-.37-.008t-.37.008q-.185.009-.37.026-.184.017-.367.043-.184.025-.366.06-.182.034-.362.076-.18.042-.358.093-.179.051-.354.11-.176.059-.348.126-.173.067-.342.142-.17.075-.335.158-.166.082-.328.173-.162.09-.319.188-.157.097-.31.202-.152.105-.3.217-.148.111-.29.23-.143.118-.28.243L6.459 26.095q-.307.281-.583.592-.276.31-.518.648-.242.337-.448.698-.206.36-.374.741-.167.38-.295.776-.127.395-.212.802-.086.406-.13.82-.042.413-.042.828t.043.829q.043.413.129.82.085.406.212.801.128.396.295.776.168.38.374.741.206.36.448.698.242.338.518.648t.583.591l23.144 21.16q.136.126.279.244.142.118.29.23.148.112.3.217.153.105.31.203.158.097.32.187.16.09.327.173.165.083.335.158.169.075.342.142.172.067.348.126.175.059.353.11.179.05.359.093.18.042.362.077.182.034.366.06.183.025.367.042.185.017.37.026.185.008.37.008t.37-.008q.185-.009.37-.026.184-.017.367-.043.184-.025.366-.06.182-.034.362-.076.18-.043.358-.093.179-.051.354-.11.176-.059.348-.126.173-.067.342-.142.17-.075.335-.158.166-.082.328-.173.162-.09.319-.188.157-.097.31-.202.152-.105.3-.217.148-.111.29-.23.142-.118.28-.243l23.143-21.16q.307-.281.583-.592.276-.31.518-.648.242-.337.448-.698.206-.36.374-.741.167-.38.295-.776.127-.395.212-.802.086-.406.13-.82.042-.413.042-.828ZM39.05 6.412l23.144 21.16q1.951 1.784 1.951 4.428t-1.951 4.428l-23.144 21.16Q37.329 59.16 35 59.16q-2.33 0-4.049-1.571L7.807 36.428Q5.856 34.643 5.856 32t1.951-4.428l23.144-21.16Q32.671 4.84 35 4.84q2.33 0 4.049 1.572Z" fill-rule="evenodd" fill="#2C2C2C"/><g><path d="M36.69 31.073V21.24c0-.685-.604-1.24-1.35-1.24-.746 0-1.35.555-1.35 1.24v9.834H23.363c-.753 0-1.363.561-1.363 1.253 0 .692.61 1.253 1.363 1.254h10.625v9.87c0 .684.605 1.24 1.35 1.24.746 0 1.35-.556 1.35-1.24v-9.87h10.887c.753-.001 1.363-.562 1.363-1.254 0-.691-.61-1.253-1.363-1.253H36.69Z" fill="#2C2C2C" style="mix-blend-mode:passthrough"/></g></svg>