<svg xmlns="http://www.w3.org/2000/svg" fill="none" width="32" height="32"><rect width="32" height="32" rx="8" fill="#FFF" style="mix-blend-mode:passthrough"/><rect x=".5" y=".5" width="31" height="31" rx="7.5" stroke="#0086E5"/><path d="m12.728 7.5-.106.067-.035.022c-1.503.946-2.537 1.813-3.22 2.66-.684.848-1.015 1.702-1.024 2.525-.019 1.638 1.12 2.866 2.129 3.964 1.009 1.097 1.909 2.132 1.994 2.988.043.437-.054.875-.503 1.475-.446.598-1.256 1.314-2.551 2.116L7.5 24.5h11.8l.14-.086c1.373-.85 2.297-1.635 2.886-2.424.591-.791.832-1.62.755-2.396-.152-1.54-1.334-2.663-2.327-3.743-.995-1.081-1.8-2.1-1.79-3.061.006-.485.182-1.026.737-1.715.554-.688 1.489-1.492 2.922-2.394L24.5 7.5H12.728Zm.333 1.27h7.267c-.64.506-1.146.996-1.535 1.479-.684.848-1.015 1.702-1.024 2.525-.019 1.638 1.12 2.866 2.129 3.964 1.009 1.097 1.909 2.132 1.994 2.988.043.437-.055.875-.503 1.475-.43.576-1.202 1.263-2.417 2.03h-7.286a7.342 7.342 0 0 0 1.215-1.24c.59-.792.83-1.62.754-2.397-.152-1.54-1.334-2.663-2.327-3.743-.994-1.081-1.8-2.1-1.79-3.061.006-.485.182-1.026.737-1.715.536-.665 1.432-1.44 2.786-2.305Zm-1.7 2.165v.587h5.68v-.587h-5.68Zm-.212 3.16v.586h5.874v-.586H11.15Zm2.662 3.159v.586h5.688v-.586h-5.688Zm.813 3.159v.586h5.895v-.586h-5.895Z" fill="#0086E5" style="mix-blend-mode:passthrough"/></svg>