<svg xmlns="http://www.w3.org/2000/svg" fill="none" width="32" height="32"><rect width="32" height="32" rx="8" fill="#FFF" style="mix-blend-mode:passthrough"/><rect x=".5" y=".5" width="31" height="31" rx="7.5" stroke="#000"/><path d="M22.049 15.592H8.083l4.624-5.77h2.662c.234 1.05 1.028 1.807 1.916 1.807 1.12 0 2.055-1.166 2.055-2.565 0-1.398-.934-2.564-2.055-2.564-.935 0-1.682.758-1.916 1.807h-3.13l-5.791 7.285H5v1.457h4.344l5.325 6.644h2.569V25.5h4.064v-5.07h-4.064v1.806h-2.055l-4.158-5.187h11.07v2.74L27 16.348l-4.904-3.438v2.681h-.047ZM17.33 8.015c.467 0 .888.467.888 1.108 0 .64-.42 1.049-.888 1.049-.467 0-.887-.466-.887-1.108 0-.64.42-1.049.887-1.049Zm1.075 13.871h1.728v2.157h-1.729v-2.157Zm4.81-6.527 1.355.99-1.354.991V15.36Z" fill="#2C2C2C" style="mix-blend-mode:passthrough"/></svg>