<svg xmlns="http://www.w3.org/2000/svg" fill="none" width="64" height="64"><defs><clipPath id="a"><rect width="64" height="64" rx="32"/></clipPath><clipPath id="b"><rect x="24" y="19" width="18" height="24" rx="0"/></clipPath></defs><g clip-path="url(#a)"><rect width="64" height="64" rx="32" fill="#FFF" style="mix-blend-mode:passthrough"/><rect width="64" height="64" rx="32" fill="#000" fill-opacity=".001" style="mix-blend-mode:passthrough"/><rect x="24" y="16" width="18" height="32" rx="0" fill="none" style="mix-blend-mode:passthrough"/><g clip-path="url(#b)"><path d="M27.422 62.712q-1.125.656-2.25.047-1.125-.657-1.172-1.97v-16.5q.047-1.312 1.172-1.968 1.125-.61 2.25.047l13.5 8.25q1.031.656 1.078 1.922-.047 1.219-1.078 1.922l-13.5 8.25Z" fill="#2C2C2C" style="mix-blend-mode:passthrough" transform="matrix(1 0 0 -1 0 84.056)"/></g><rect x="1" y="1" width="62" height="62" rx="31" stroke="#2C2C2C" stroke-width="2" style="mix-blend-mode:passthrough"/></g></svg>