<svg xmlns="http://www.w3.org/2000/svg" fill="none" width="32" height="32"><defs><clipPath id="a"><rect x="5.5" y="6" width="21" height="20" rx="0"/></clipPath></defs><rect width="32" height="32" rx="8" fill="#FFF" style="mix-blend-mode:passthrough"/><rect x=".5" y=".5" width="31" height="31" rx="7.5" stroke="#000"/><g clip-path="url(#a)"><path d="M18.161 18.707h5.405c.455 0 .826-.347.834-.78v-3.574c0-.42-.371-.781-.834-.781H18.16c-.455-.001-.827.347-.833.78v1.231h-5.621v-3.54h2.13c.456 0 .828-.348.835-.782V7.688c0-.42-.37-.78-.834-.78H8.433c-.455 0-.826.347-.833.78v3.573c0 .421.37.781.833.781h2.131v11.17h6.733v1.23c0 .42.37.78.834.78h5.404c.455.001.826-.346.834-.78V20.87c0-.42-.37-.78-.834-.78H18.16c-.455-.001-.827.347-.833.78V22.1h-5.621v-5.405h5.62v1.232c0 .42.371.78.834.78Zm.247-4.173h4.88v3.212h-4.88v-3.212ZM8.68 11.081V7.84h4.88v3.212H8.68v.03Zm9.728 9.968h4.88v3.212h-4.88V21.05Z" fill="#2C2C2C" style="mix-blend-mode:passthrough"/></g></svg>