<svg xmlns="http://www.w3.org/2000/svg" fill="none" width="32" height="32"><defs><clipPath id="a"><rect x="7" y="7" width="18" height="18" rx="0"/></clipPath></defs><rect width="32" height="32" rx="8" fill="#FFF" style="mix-blend-mode:passthrough"/><rect x=".5" y=".5" width="31" height="31" rx="7.5" stroke="#0086E5"/><g clip-path="url(#a)"><path d="M15.894 16.616a4.636 4.636 0 0 1-4.63-4.63 4.636 4.636 0 0 1 4.63-4.632 4.636 4.636 0 0 1 4.631 4.631 4.636 4.636 0 0 1-4.63 4.63Zm0-8.262a3.635 3.635 0 0 0-3.63 3.631 3.635 3.635 0 0 0 3.63 3.63 3.635 3.635 0 0 0 3.631-3.63 3.635 3.635 0 0 0-3.63-3.63ZM16.05 17.92c-4.411 0-8 3.074-8 6.853h.5c0-3.51 3.358-6.353 7.5-6.353 4.14 0 7.498 2.844 7.498 6.353h.5c0-3.779-3.589-6.853-7.999-6.853Z" fill="#0086E5" style="mix-blend-mode:passthrough"/><path d="M16.047 18.92c3.86 0 7 2.625 7 5.853h.499c0-3.509-3.357-6.353-7.499-6.353-4.14 0-7.498 2.844-7.498 6.353h.5c0-3.227 3.14-5.853 6.998-5.853Z" fill="#0086E5" style="mix-blend-mode:passthrough"/></g></svg>