<svg t="1720579648245" class="icon" viewBox="0 0 1024 1024" version="1.1" xmlns="http://www.w3.org/2000/svg" p-id="1053" width="200" height="200"><path d="M853.60416668 488.59791668l-65.64375-285.075a98.38125 98.38125 0 0 0-53.60625-67.05L470.54166668 10.02291668a98.60625 98.60625 0 0 0-85.8375 0.16875L121.39791668 137.54166668c-27.225 13.1625-46.74375 37.6875-53.4375 67.21875L3.38541668 490.11666668a98.49375 98.49375 0 0 0 19.2375 83.64375l182.75625 228.31875c18.28125 22.8375 45.50625 36.3375 77.45625 37.18125l292.5-0.5625a98.4375 98.4375 0 0 0 77.23125-37.35l181.96875-229.05c18.95625-23.7375 25.81875-54.225 19.06875-83.7z m-70.0875 43.14375L601.60416668 760.79166668a33.58125 33.58125 0 0 1-26.325 12.7125l-292.6125 0.50625h-1.06875a34.0875 34.0875 0 0 1-25.25625-12.65625l-182.8125-228.375a33.69375 33.69375 0 0 1-6.58125-28.4625l64.63125-285.35625a33.4125 33.4125 0 0 1 18.16875-22.89375L413.05416668 68.91666668a33.3 33.3 0 0 1 29.30625-0.05625l263.8125 126.45a33.4125 33.4125 0 0 1 18.225 22.8375L790.04166668 503.16666668a33.75 33.75 0 0 1-6.525 28.575z" fill="#2c2c2c" p-id="1054"></path><path d="M682.49166668 467.44791668l-52.5375-15.3a199.8 199.8 0 0 0-22.8375-122.23125l40.89375-32.625a28.74375 28.74375 0 0 0-35.6625-44.94375l-40.05 31.78125a198.9 198.9 0 0 0-107.8875-55.29375l1.35-53.325a28.6875 28.6875 0 0 0-57.31875-1.4625l-1.40625 53.60625a199.40625 199.40625 0 0 0-109.575 50.4l-39.375-34.70625a28.74375 28.74375 0 0 0-37.96875 43.0875l40.6125 35.775a198.95625 198.95625 0 0 0-28.51875 119.25l-55.06875 13.10625a28.6875 28.6875 0 0 0 13.275 55.85625l54.39375-12.88125a200.86875 200.86875 0 0 0 71.60625 91.96875l-28.29375 57.825a28.6875 28.6875 0 0 0 51.58125 25.3125l27.9-57.09375a198 198 0 0 0 116.83125 3.4875l24.80625 57.9375a28.74375 28.74375 0 0 0 52.7625-22.66875l-24.975-58.21875a199.74375 199.74375 0 0 0 77.4-88.70625l51.975 15.13125a28.4625 28.4625 0 0 0 35.60625-19.4625 28.85625 28.85625 0 0 0-19.51875-35.60625zM461.37291668 347.74791668l1.35-52.81875c21.4875 5.11875 41.4 15.46875 58.10625 30.20625l-41.34375 32.85a82.125 82.125 0 0 0-18.1125-10.2375z m-39.65625 157.05c4.55625 0.5625 9.28125 0.675 13.89375 0.3375l22.66875 53.1a131.0625 131.0625 0 0 1-61.7625-2.025l25.2-51.4125z m4.66875-81.3375a4.3875 4.3875 0 0 1 4.5-4.275 4.33125 4.33125 0 0 1 4.21875 4.5c-0.1125 4.78125-8.83125 4.55625-8.71875-0.225zM346.84791668 321.53541668a134.325 134.325 0 0 1 58.55625-27.73125l-1.35 52.48125a81.1125 81.1125 0 0 0-18.61875 9.28125l-38.5875-34.03125z m4.89375 80.94375a76.5 76.5 0 0 0-2.19375 11.25l-52.7625 12.43125 0.05625-3.4875c0.50625-19.575 5.2875-38.75625 14.0625-56.25l40.8375 36.05625z m11.3625 66.9375c2.25 3.375 4.725 6.46875 7.425 9.39375l-24.91875 50.90625a136.575 136.575 0 0 1-36.39375-47.475l53.8875-12.825z m187.7625 19.40625a136.35 136.35 0 0 1-39.99375 46.2375l-22.78125-53.26875c2.8125-2.8125 5.45625-5.79375 7.875-8.94375l54.9 15.975z m3.9375-117.39375a134.4375 134.4375 0 0 1 11.53125 62.15625l-54-15.75a78.1875 78.1875 0 0 0-1.63125-11.30625l44.1-35.1z" fill="#2c2c2c" p-id="1055"></path></svg>
